<svg width="251" height="119" viewBox="0 0 251 119" fill="none" xmlns="http://www.w3.org/2000/svg">
<g clip-path="url(#clip0_121:116)">
<path d="M1.0893 17.1636C0.640575 15.2464 0.341401 13.9066 0.203331 13.1444C0.0727316 12.459 0.00342928 11.7633 -0.0037656 11.0655C-0.0384969 9.48297 0.359439 7.92115 1.14682 6.54968C1.91345 5.2456 2.93027 4.10718 4.13834 3.20037C5.37391 2.28886 6.76075 1.60454 8.23442 1.17923C9.72688 0.726508 11.2776 0.49691 12.8368 0.497819C14.3327 0.473225 15.8199 0.731827 17.2205 1.26008C18.4173 1.70417 19.5073 2.39682 20.4191 3.29277C21.4594 4.30878 22.2272 5.57208 22.6512 6.96546C23.0808 8.35139 23.518 9.9452 23.9629 11.7469L39.841 78.4099C40.3472 80.7198 40.7844 82.8757 41.1526 84.8776C41.5093 86.8756 41.8429 88.6658 42.1191 90.248C42.4067 92.1075 42.6254 93.8053 42.798 95.3182H43.1316C43.3617 93.8515 43.6034 92.1884 43.891 90.3289L44.8575 84.9585C45.2257 82.9027 45.7089 80.6852 46.3302 78.3176L61.9897 13.5255C63.1096 8.73638 65.0042 5.36781 67.6736 3.41981C70.3429 1.47182 73.8675 0.497819 78.2474 0.497819C82.6273 0.497819 86.1558 1.47182 88.8328 3.41981C91.5098 5.36781 93.4045 8.76332 94.5167 13.6064L109.911 78.1558C110.418 80.4118 110.882 82.5677 111.304 84.6235C111.718 86.6793 112.075 88.5272 112.362 90.1672C112.696 92.0266 113.007 93.8053 113.283 95.4915H113.616C113.904 93.7475 114.18 91.9343 114.468 90.0748C114.744 88.4464 115.066 86.61 115.434 84.5773C115.802 82.5446 116.228 80.4657 116.734 78.3176L131.611 11.8278C132.06 9.96831 132.486 8.36294 132.877 6.93082C133.231 5.58799 133.929 4.3616 134.902 3.3736C135.88 2.40647 137.058 1.66887 138.354 1.21387C139.752 0.725813 141.223 0.483577 142.703 0.497819C144.172 0.497561 145.633 0.711538 147.041 1.13304C148.436 1.53151 149.749 2.17685 150.918 3.03868C152.057 3.8641 153.016 4.91325 153.737 6.12236C154.505 7.38402 154.903 8.83671 154.888 10.3148C154.888 10.592 154.888 10.8923 154.888 11.1925C154.888 11.4928 154.796 11.8855 154.715 12.3475C154.635 12.8095 154.52 13.3523 154.382 13.999C154.244 14.6458 154.059 15.4312 153.829 16.3089L131.773 103.357C131.23 105.49 130.538 107.581 129.702 109.616C129.022 111.342 128.005 112.913 126.71 114.236C125.174 115.75 123.294 116.868 121.233 117.493C118.664 118.248 115.994 118.603 113.317 118.544C110.72 118.609 108.128 118.254 105.643 117.493C103.645 116.839 101.829 115.723 100.339 114.236C99.056 112.927 98.0776 111.35 97.4737 109.616C96.7193 107.565 96.0702 105.475 95.5292 103.357L80.4336 41.1863C79.9887 39.2691 79.5783 37.3442 79.2024 35.4116C78.8457 33.4713 78.512 31.7042 78.2359 30.122C77.9598 28.2625 77.6721 26.5186 77.396 24.8786H77.0508C76.8322 26.5763 76.5791 28.3434 76.3029 30.2144C76.0153 31.7967 75.6931 33.5406 75.325 35.4578C74.9568 37.375 74.5541 39.3153 74.1053 41.2902L59.0902 103.357C58.4689 105.728 57.8246 107.815 57.1572 109.616C56.5442 111.345 55.567 112.921 54.2923 114.236C52.778 115.71 50.9422 116.81 48.9306 117.447C46.4183 118.211 43.8 118.566 41.1756 118.498C38.5256 118.552 35.883 118.198 33.3402 117.447C31.2803 116.819 29.4017 115.702 27.8634 114.19C26.5761 112.86 25.5599 111.291 24.8718 109.57C24.0344 107.537 23.346 105.445 22.8123 103.31L1.0893 17.1636Z" fill="#252525"/>
<path d="M163.785 20.8732C162.119 19.9017 160.714 18.5382 159.689 16.9002C158.933 15.5664 158.537 14.0577 158.539 12.523C158.551 11.134 158.82 9.75927 159.333 8.46916C159.863 7.10018 160.643 5.8428 161.634 4.76182C162.617 3.67592 163.786 2.77615 165.086 2.10546C166.42 1.4323 167.896 1.0916 169.389 1.11221C170.467 1.0996 171.538 1.27948 172.553 1.64347C173.854 2.17371 175.095 2.83953 176.258 3.62997L244.533 48.3261C246.651 49.567 248.423 51.3224 249.688 53.4309C250.587 55.2205 251.041 57.2017 251.011 59.2056C251.025 61.1937 250.546 63.1541 249.619 64.911C248.364 67.0217 246.619 68.7968 244.533 70.0851L175.694 115.047C174.422 115.848 173.096 116.558 171.724 117.172C170.678 117.61 169.556 117.834 168.422 117.83C167.028 117.832 165.651 117.517 164.395 116.906C163.174 116.326 162.076 115.514 161.162 114.516C160.264 113.521 159.547 112.376 159.045 111.132C158.534 109.938 158.264 108.654 158.251 107.355C158.188 105.736 158.587 104.133 159.402 102.735C160.418 101.231 161.72 99.944 163.233 98.947L222.672 60.0025L163.785 20.8732Z" fill="#252525"/>
<path d="M166.294 67.5551C170.742 67.5551 174.348 63.9355 174.348 59.4705C174.348 55.0056 170.742 51.386 166.294 51.386C161.846 51.386 158.24 55.0056 158.24 59.4705C158.24 63.9355 161.846 67.5551 166.294 67.5551Z" fill="#252525"/>
</g>
<defs>
<clipPath id="clip0_121:116">
<rect width="251" height="118" fill="white" transform="translate(0 0.5)"/>
</clipPath>
</defs>
</svg>
