<svg width="133" height="133" viewBox="0 0 133 133" fill="none" xmlns="http://www.w3.org/2000/svg">
<path d="M12.635 8.64502H8.64502V12.635H12.635V8.64502Z" fill="#252525"/>
<path d="M16.625 8.64502H12.635V12.635H16.625V8.64502Z" fill="#252525"/>
<path d="M20.615 8.64502H16.625V12.635H20.615V8.64502Z" fill="#252525"/>
<path d="M24.605 8.64502H20.615V12.635H24.605V8.64502Z" fill="#252525"/>
<path d="M28.595 8.64502H24.605V12.635H28.595V8.64502Z" fill="#252525"/>
<path d="M32.585 8.64502H28.595V12.635H32.585V8.64502Z" fill="#252525"/>
<path d="M36.575 8.64502H32.585V12.635H36.575V8.64502Z" fill="#252525"/>
<path d="M48.545 8.64502H44.555V12.635H48.545V8.64502Z" fill="#252525"/>
<path d="M64.505 8.64502H60.515V12.635H64.505V8.64502Z" fill="#252525"/>
<path d="M76.475 8.64502H72.485V12.635H76.475V8.64502Z" fill="#252525"/>
<path d="M80.465 8.64502H76.475V12.635H80.465V8.64502Z" fill="#252525"/>
<path d="M84.455 8.64502H80.465V12.635H84.455V8.64502Z" fill="#252525"/>
<path d="M88.445 8.64502H84.455V12.635H88.445V8.64502Z" fill="#252525"/>
<path d="M92.435 8.64502H88.445V12.635H92.435V8.64502Z" fill="#252525"/>
<path d="M100.415 8.64502H96.425V12.635H100.415V8.64502Z" fill="#252525"/>
<path d="M104.405 8.64502H100.415V12.635H104.405V8.64502Z" fill="#252525"/>
<path d="M108.395 8.64502H104.405V12.635H108.395V8.64502Z" fill="#252525"/>
<path d="M112.385 8.64502H108.395V12.635H112.385V8.64502Z" fill="#252525"/>
<path d="M116.375 8.64502H112.385V12.635H116.375V8.64502Z" fill="#252525"/>
<path d="M120.365 8.64502H116.375V12.635H120.365V8.64502Z" fill="#252525"/>
<path d="M124.355 8.64502H120.365V12.635H124.355V8.64502Z" fill="#252525"/>
<path d="M12.635 12.635H8.64502V16.625H12.635V12.635Z" fill="#252525"/>
<path d="M36.575 12.635H32.585V16.625H36.575V12.635Z" fill="#252525"/>
<path d="M44.555 12.635H40.565V16.625H44.555V12.635Z" fill="#252525"/>
<path d="M48.545 12.635H44.555V16.625H48.545V12.635Z" fill="#252525"/>
<path d="M56.525 12.635H52.535V16.625H56.525V12.635Z" fill="#252525"/>
<path d="M60.515 12.635H56.525V16.625H60.515V12.635Z" fill="#252525"/>
<path d="M72.485 12.635H68.495V16.625H72.485V12.635Z" fill="#252525"/>
<path d="M84.455 12.635H80.465V16.625H84.455V12.635Z" fill="#252525"/>
<path d="M100.415 12.635H96.425V16.625H100.415V12.635Z" fill="#252525"/>
<path d="M124.355 12.635H120.365V16.625H124.355V12.635Z" fill="#252525"/>
<path d="M12.635 16.625H8.64502V20.615H12.635V16.625Z" fill="#252525"/>
<path d="M20.615 16.625H16.625V20.615H20.615V16.625Z" fill="#252525"/>
<path d="M24.605 16.625H20.615V20.615H24.605V16.625Z" fill="#252525"/>
<path d="M28.595 16.625H24.605V20.615H28.595V16.625Z" fill="#252525"/>
<path d="M36.575 16.625H32.585V20.615H36.575V16.625Z" fill="#252525"/>
<path d="M48.545 16.625H44.555V20.615H48.545V16.625Z" fill="#252525"/>
<path d="M52.535 16.625H48.545V20.615H52.535V16.625Z" fill="#252525"/>
<path d="M56.525 16.625H52.535V20.615H56.525V16.625Z" fill="#252525"/>
<path d="M68.495 16.625H64.505V20.615H68.495V16.625Z" fill="#252525"/>
<path d="M72.485 16.625H68.495V20.615H72.485V16.625Z" fill="#252525"/>
<path d="M76.475 16.625H72.485V20.615H76.475V16.625Z" fill="#252525"/>
<path d="M84.455 16.625H80.465V20.615H84.455V16.625Z" fill="#252525"/>
<path d="M92.435 16.625H88.445V20.615H92.435V16.625Z" fill="#252525"/>
<path d="M100.415 16.625H96.425V20.615H100.415V16.625Z" fill="#252525"/>
<path d="M108.395 16.625H104.405V20.615H108.395V16.625Z" fill="#252525"/>
<path d="M112.385 16.625H108.395V20.615H112.385V16.625Z" fill="#252525"/>
<path d="M116.375 16.625H112.385V20.615H116.375V16.625Z" fill="#252525"/>
<path d="M124.355 16.625H120.365V20.615H124.355V16.625Z" fill="#252525"/>
<path d="M12.635 20.615H8.64502V24.605H12.635V20.615Z" fill="#252525"/>
<path d="M20.615 20.615H16.625V24.605H20.615V20.615Z" fill="#252525"/>
<path d="M24.605 20.615H20.615V24.605H24.605V20.615Z" fill="#252525"/>
<path d="M28.595 20.615H24.605V24.605H28.595V20.615Z" fill="#252525"/>
<path d="M36.575 20.615H32.585V24.605H36.575V20.615Z" fill="#252525"/>
<path d="M44.555 20.615H40.565V24.605H44.555V20.615Z" fill="#252525"/>
<path d="M48.545 20.615H44.555V24.605H48.545V20.615Z" fill="#252525"/>
<path d="M56.525 20.615H52.535V24.605H56.525V20.615Z" fill="#252525"/>
<path d="M64.505 20.615H60.515V24.605H64.505V20.615Z" fill="#252525"/>
<path d="M68.495 20.615H64.505V24.605H68.495V20.615Z" fill="#252525"/>
<path d="M80.465 20.615H76.475V24.605H80.465V20.615Z" fill="#252525"/>
<path d="M92.435 20.615H88.445V24.605H92.435V20.615Z" fill="#252525"/>
<path d="M100.415 20.615H96.425V24.605H100.415V20.615Z" fill="#252525"/>
<path d="M108.395 20.615H104.405V24.605H108.395V20.615Z" fill="#252525"/>
<path d="M112.385 20.615H108.395V24.605H112.385V20.615Z" fill="#252525"/>
<path d="M116.375 20.615H112.385V24.605H116.375V20.615Z" fill="#252525"/>
<path d="M124.355 20.615H120.365V24.605H124.355V20.615Z" fill="#252525"/>
<path d="M12.635 24.605H8.64502V28.595H12.635V24.605Z" fill="#252525"/>
<path d="M20.615 24.605H16.625V28.595H20.615V24.605Z" fill="#252525"/>
<path d="M24.605 24.605H20.615V28.595H24.605V24.605Z" fill="#252525"/>
<path d="M28.595 24.605H24.605V28.595H28.595V24.605Z" fill="#252525"/>
<path d="M36.575 24.605H32.585V28.595H36.575V24.605Z" fill="#252525"/>
<path d="M52.535 24.605H48.545V28.595H52.535V24.605Z" fill="#252525"/>
<path d="M60.515 24.605H56.525V28.595H60.515V24.605Z" fill="#252525"/>
<path d="M64.505 24.605H60.515V28.595H64.505V24.605Z" fill="#252525"/>
<path d="M76.475 24.605H72.485V28.595H76.475V24.605Z" fill="#252525"/>
<path d="M88.445 24.605H84.455V28.595H88.445V24.605Z" fill="#252525"/>
<path d="M92.435 24.605H88.445V28.595H92.435V24.605Z" fill="#252525"/>
<path d="M100.415 24.605H96.425V28.595H100.415V24.605Z" fill="#252525"/>
<path d="M108.395 24.605H104.405V28.595H108.395V24.605Z" fill="#252525"/>
<path d="M112.385 24.605H108.395V28.595H112.385V24.605Z" fill="#252525"/>
<path d="M116.375 24.605H112.385V28.595H116.375V24.605Z" fill="#252525"/>
<path d="M124.355 24.605H120.365V28.595H124.355V24.605Z" fill="#252525"/>
<path d="M12.635 28.595H8.64502V32.585H12.635V28.595Z" fill="#252525"/>
<path d="M36.575 28.595H32.585V32.585H36.575V28.595Z" fill="#252525"/>
<path d="M44.555 28.595H40.565V32.585H44.555V28.595Z" fill="#252525"/>
<path d="M52.535 28.595H48.545V32.585H52.535V28.595Z" fill="#252525"/>
<path d="M64.505 28.595H60.515V32.585H64.505V28.595Z" fill="#252525"/>
<path d="M68.495 28.595H64.505V32.585H68.495V28.595Z" fill="#252525"/>
<path d="M72.485 28.595H68.495V32.585H72.485V28.595Z" fill="#252525"/>
<path d="M76.475 28.595H72.485V32.585H76.475V28.595Z" fill="#252525"/>
<path d="M92.435 28.595H88.445V32.585H92.435V28.595Z" fill="#252525"/>
<path d="M100.415 28.595H96.425V32.585H100.415V28.595Z" fill="#252525"/>
<path d="M124.355 28.595H120.365V32.585H124.355V28.595Z" fill="#252525"/>
<path d="M12.635 32.585H8.64502V36.575H12.635V32.585Z" fill="#252525"/>
<path d="M16.625 32.585H12.635V36.575H16.625V32.585Z" fill="#252525"/>
<path d="M20.615 32.585H16.625V36.575H20.615V32.585Z" fill="#252525"/>
<path d="M24.605 32.585H20.615V36.575H24.605V32.585Z" fill="#252525"/>
<path d="M28.595 32.585H24.605V36.575H28.595V32.585Z" fill="#252525"/>
<path d="M32.585 32.585H28.595V36.575H32.585V32.585Z" fill="#252525"/>
<path d="M36.575 32.585H32.585V36.575H36.575V32.585Z" fill="#252525"/>
<path d="M44.555 32.585H40.565V36.575H44.555V32.585Z" fill="#252525"/>
<path d="M52.535 32.585H48.545V36.575H52.535V32.585Z" fill="#252525"/>
<path d="M60.515 32.585H56.525V36.575H60.515V32.585Z" fill="#252525"/>
<path d="M68.495 32.585H64.505V36.575H68.495V32.585Z" fill="#252525"/>
<path d="M76.475 32.585H72.485V36.575H76.475V32.585Z" fill="#252525"/>
<path d="M84.455 32.585H80.465V36.575H84.455V32.585Z" fill="#252525"/>
<path d="M92.435 32.585H88.445V36.575H92.435V32.585Z" fill="#252525"/>
<path d="M100.415 32.585H96.425V36.575H100.415V32.585Z" fill="#252525"/>
<path d="M104.405 32.585H100.415V36.575H104.405V32.585Z" fill="#252525"/>
<path d="M108.395 32.585H104.405V36.575H108.395V32.585Z" fill="#252525"/>
<path d="M112.385 32.585H108.395V36.575H112.385V32.585Z" fill="#252525"/>
<path d="M116.375 32.585H112.385V36.575H116.375V32.585Z" fill="#252525"/>
<path d="M120.365 32.585H116.375V36.575H120.365V32.585Z" fill="#252525"/>
<path d="M124.355 32.585H120.365V36.575H124.355V32.585Z" fill="#252525"/>
<path d="M60.515 36.575H56.525V40.565H60.515V36.575Z" fill="#252525"/>
<path d="M68.495 36.575H64.505V40.565H68.495V36.575Z" fill="#252525"/>
<path d="M76.475 36.575H72.485V40.565H76.475V36.575Z" fill="#252525"/>
<path d="M12.635 40.5649H8.64502V44.5549H12.635V40.5649Z" fill="#252525"/>
<path d="M16.625 40.5649H12.635V44.5549H16.625V40.5649Z" fill="#252525"/>
<path d="M20.615 40.5649H16.625V44.5549H20.615V40.5649Z" fill="#252525"/>
<path d="M24.605 40.5649H20.615V44.5549H24.605V40.5649Z" fill="#252525"/>
<path d="M28.595 40.5649H24.605V44.5549H28.595V40.5649Z" fill="#252525"/>
<path d="M36.575 40.5649H32.585V44.5549H36.575V40.5649Z" fill="#252525"/>
<path d="M40.565 40.5649H36.575V44.5549H40.565V40.5649Z" fill="#252525"/>
<path d="M44.555 40.5649H40.565V44.5549H44.555V40.5649Z" fill="#252525"/>
<path d="M48.545 40.5649H44.555V44.5549H48.545V40.5649Z" fill="#252525"/>
<path d="M52.535 40.5649H48.545V44.5549H52.535V40.5649Z" fill="#252525"/>
<path d="M60.515 40.5649H56.525V44.5549H60.515V40.5649Z" fill="#252525"/>
<path d="M64.505 40.5649H60.515V44.5549H64.505V40.5649Z" fill="#252525"/>
<path d="M80.465 40.5649H76.475V44.5549H80.465V40.5649Z" fill="#252525"/>
<path d="M88.445 40.5649H84.455V44.5549H88.445V40.5649Z" fill="#252525"/>
<path d="M96.425 40.5649H92.435V44.5549H96.425V40.5649Z" fill="#252525"/>
<path d="M104.405 40.5649H100.415V44.5549H104.405V40.5649Z" fill="#252525"/>
<path d="M112.385 40.5649H108.395V44.5549H112.385V40.5649Z" fill="#252525"/>
<path d="M120.365 40.5649H116.375V44.5549H120.365V40.5649Z" fill="#252525"/>
<path d="M16.625 44.5549H12.635V48.5449H16.625V44.5549Z" fill="#252525"/>
<path d="M32.585 44.5549H28.595V48.5449H32.585V44.5549Z" fill="#252525"/>
<path d="M48.545 44.5549H44.555V48.5449H48.545V44.5549Z" fill="#252525"/>
<path d="M64.505 44.5549H60.515V48.5449H64.505V44.5549Z" fill="#252525"/>
<path d="M76.475 44.5549H72.485V48.5449H76.475V44.5549Z" fill="#252525"/>
<path d="M84.455 44.5549H80.465V48.5449H84.455V44.5549Z" fill="#252525"/>
<path d="M88.445 44.5549H84.455V48.5449H88.445V44.5549Z" fill="#252525"/>
<path d="M92.435 44.5549H88.445V48.5449H92.435V44.5549Z" fill="#252525"/>
<path d="M96.425 44.5549H92.435V48.5449H96.425V44.5549Z" fill="#252525"/>
<path d="M100.415 44.5549H96.425V48.5449H100.415V44.5549Z" fill="#252525"/>
<path d="M104.405 44.5549H100.415V48.5449H104.405V44.5549Z" fill="#252525"/>
<path d="M108.395 44.5549H104.405V48.5449H108.395V44.5549Z" fill="#252525"/>
<path d="M124.355 44.5549H120.365V48.5449H124.355V44.5549Z" fill="#252525"/>
<path d="M12.635 48.5449H8.64502V52.5349H12.635V48.5449Z" fill="#252525"/>
<path d="M20.615 48.5449H16.625V52.5349H20.615V48.5449Z" fill="#252525"/>
<path d="M24.605 48.5449H20.615V52.5349H24.605V48.5449Z" fill="#252525"/>
<path d="M32.585 48.5449H28.595V52.5349H32.585V48.5449Z" fill="#252525"/>
<path d="M36.575 48.5449H32.585V52.5349H36.575V48.5449Z" fill="#252525"/>
<path d="M40.565 48.5449H36.575V52.5349H40.565V48.5449Z" fill="#252525"/>
<path d="M44.555 48.5449H40.565V52.5349H44.555V48.5449Z" fill="#252525"/>
<path d="M48.545 48.5449H44.555V52.5349H48.545V48.5449Z" fill="#252525"/>
<path d="M56.525 48.5449H52.535V52.5349H56.525V48.5449Z" fill="#252525"/>
<path d="M60.515 48.5449H56.525V52.5349H60.515V48.5449Z" fill="#252525"/>
<path d="M64.505 48.5449H60.515V52.5349H64.505V48.5449Z" fill="#252525"/>
<path d="M68.495 48.5449H64.505V52.5349H68.495V48.5449Z" fill="#252525"/>
<path d="M72.485 48.5449H68.495V52.5349H72.485V48.5449Z" fill="#252525"/>
<path d="M80.465 48.5449H76.475V52.5349H80.465V48.5449Z" fill="#252525"/>
<path d="M84.455 48.5449H80.465V52.5349H84.455V48.5449Z" fill="#252525"/>
<path d="M92.435 48.5449H88.445V52.5349H92.435V48.5449Z" fill="#252525"/>
<path d="M100.415 48.5449H96.425V52.5349H100.415V48.5449Z" fill="#252525"/>
<path d="M104.405 48.5449H100.415V52.5349H104.405V48.5449Z" fill="#252525"/>
<path d="M20.615 52.5349H16.625V56.5249H20.615V52.5349Z" fill="#252525"/>
<path d="M24.605 52.5349H20.615V56.5249H24.605V52.5349Z" fill="#252525"/>
<path d="M28.595 52.5349H24.605V56.5249H28.595V52.5349Z" fill="#252525"/>
<path d="M40.565 52.5349H36.575V56.5249H40.565V52.5349Z" fill="#252525"/>
<path d="M48.545 52.5349H44.555V56.5249H48.545V52.5349Z" fill="#252525"/>
<path d="M52.535 52.5349H48.545V56.5249H52.535V52.5349Z" fill="#252525"/>
<path d="M56.525 52.5349H52.535V56.5249H56.525V52.5349Z" fill="#252525"/>
<path d="M68.495 52.5349H64.505V56.5249H68.495V52.5349Z" fill="#252525"/>
<path d="M76.475 52.5349H72.485V56.5249H76.475V52.5349Z" fill="#252525"/>
<path d="M84.455 52.5349H80.465V56.5249H84.455V52.5349Z" fill="#252525"/>
<path d="M88.445 52.5349H84.455V56.5249H88.445V52.5349Z" fill="#252525"/>
<path d="M92.435 52.5349H88.445V56.5249H92.435V52.5349Z" fill="#252525"/>
<path d="M100.415 52.5349H96.425V56.5249H100.415V52.5349Z" fill="#252525"/>
<path d="M104.405 52.5349H100.415V56.5249H104.405V52.5349Z" fill="#252525"/>
<path d="M108.395 52.5349H104.405V56.5249H108.395V52.5349Z" fill="#252525"/>
<path d="M112.385 52.5349H108.395V56.5249H112.385V52.5349Z" fill="#252525"/>
<path d="M120.365 52.5349H116.375V56.5249H120.365V52.5349Z" fill="#252525"/>
<path d="M20.615 56.5249H16.625V60.5149H20.615V56.5249Z" fill="#252525"/>
<path d="M36.575 56.5249H32.585V60.5149H36.575V56.5249Z" fill="#252525"/>
<path d="M40.565 56.5249H36.575V60.5149H40.565V56.5249Z" fill="#252525"/>
<path d="M44.555 56.5249H40.565V60.5149H44.555V56.5249Z" fill="#252525"/>
<path d="M48.545 56.5249H44.555V60.5149H48.545V56.5249Z" fill="#252525"/>
<path d="M56.525 56.5249H52.535V60.5149H56.525V56.5249Z" fill="#252525"/>
<path d="M72.485 56.5249H68.495V60.5149H72.485V56.5249Z" fill="#252525"/>
<path d="M80.465 56.5249H76.475V60.5149H80.465V56.5249Z" fill="#252525"/>
<path d="M84.455 56.5249H80.465V60.5149H84.455V56.5249Z" fill="#252525"/>
<path d="M104.405 56.5249H100.415V60.5149H104.405V56.5249Z" fill="#252525"/>
<path d="M112.385 56.5249H108.395V60.5149H112.385V56.5249Z" fill="#252525"/>
<path d="M116.375 56.5249H112.385V60.5149H116.375V56.5249Z" fill="#252525"/>
<path d="M24.605 60.5149H20.615V64.5049H24.605V60.5149Z" fill="#252525"/>
<path d="M48.545 60.5149H44.555V64.5049H48.545V60.5149Z" fill="#252525"/>
<path d="M52.535 60.5149H48.545V64.5049H52.535V60.5149Z" fill="#252525"/>
<path d="M60.515 60.5149H56.525V64.5049H60.515V60.5149Z" fill="#252525"/>
<path d="M64.505 60.5149H60.515V64.5049H64.505V60.5149Z" fill="#252525"/>
<path d="M76.475 60.5149H72.485V64.5049H76.475V60.5149Z" fill="#252525"/>
<path d="M80.465 60.5149H76.475V64.5049H80.465V60.5149Z" fill="#252525"/>
<path d="M84.455 60.5149H80.465V64.5049H84.455V60.5149Z" fill="#252525"/>
<path d="M88.445 60.5149H84.455V64.5049H88.445V60.5149Z" fill="#252525"/>
<path d="M92.435 60.5149H88.445V64.5049H92.435V60.5149Z" fill="#252525"/>
<path d="M96.425 60.5149H92.435V64.5049H96.425V60.5149Z" fill="#252525"/>
<path d="M100.415 60.5149H96.425V64.5049H100.415V60.5149Z" fill="#252525"/>
<path d="M104.405 60.5149H100.415V64.5049H104.405V60.5149Z" fill="#252525"/>
<path d="M108.395 60.5149H104.405V64.5049H108.395V60.5149Z" fill="#252525"/>
<path d="M124.355 60.5149H120.365V64.5049H124.355V60.5149Z" fill="#252525"/>
<path d="M12.635 64.5049H8.64502V68.4949H12.635V64.5049Z" fill="#252525"/>
<path d="M16.625 64.5049H12.635V68.4949H16.625V64.5049Z" fill="#252525"/>
<path d="M24.605 64.5049H20.615V68.4949H24.605V64.5049Z" fill="#252525"/>
<path d="M32.585 64.5049H28.595V68.4949H32.585V64.5049Z" fill="#252525"/>
<path d="M36.575 64.5049H32.585V68.4949H36.575V64.5049Z" fill="#252525"/>
<path d="M44.555 64.5049H40.565V68.4949H44.555V64.5049Z" fill="#252525"/>
<path d="M64.505 64.5049H60.515V68.4949H64.505V64.5049Z" fill="#252525"/>
<path d="M68.495 64.5049H64.505V68.4949H68.495V64.5049Z" fill="#252525"/>
<path d="M72.485 64.5049H68.495V68.4949H72.485V64.5049Z" fill="#252525"/>
<path d="M80.465 64.5049H76.475V68.4949H80.465V64.5049Z" fill="#252525"/>
<path d="M100.415 64.5049H96.425V68.4949H100.415V64.5049Z" fill="#252525"/>
<path d="M112.385 64.5049H108.395V68.4949H112.385V64.5049Z" fill="#252525"/>
<path d="M116.375 64.5049H112.385V68.4949H116.375V64.5049Z" fill="#252525"/>
<path d="M12.635 68.4951H8.64502V72.4851H12.635V68.4951Z" fill="#252525"/>
<path d="M24.605 68.4951H20.615V72.4851H24.605V68.4951Z" fill="#252525"/>
<path d="M28.595 68.4951H24.605V72.4851H28.595V68.4951Z" fill="#252525"/>
<path d="M32.585 68.4951H28.595V72.4851H32.585V68.4951Z" fill="#252525"/>
<path d="M40.565 68.4951H36.575V72.4851H40.565V68.4951Z" fill="#252525"/>
<path d="M48.545 68.4951H44.555V72.4851H48.545V68.4951Z" fill="#252525"/>
<path d="M52.535 68.4951H48.545V72.4851H52.535V68.4951Z" fill="#252525"/>
<path d="M60.515 68.4951H56.525V72.4851H60.515V68.4951Z" fill="#252525"/>
<path d="M64.505 68.4951H60.515V72.4851H64.505V68.4951Z" fill="#252525"/>
<path d="M72.485 68.4951H68.495V72.4851H72.485V68.4951Z" fill="#252525"/>
<path d="M76.475 68.4951H72.485V72.4851H76.475V68.4951Z" fill="#252525"/>
<path d="M84.455 68.4951H80.465V72.4851H84.455V68.4951Z" fill="#252525"/>
<path d="M88.445 68.4951H84.455V72.4851H88.445V68.4951Z" fill="#252525"/>
<path d="M92.435 68.4951H88.445V72.4851H92.435V68.4951Z" fill="#252525"/>
<path d="M96.425 68.4951H92.435V72.4851H96.425V68.4951Z" fill="#252525"/>
<path d="M100.415 68.4951H96.425V72.4851H100.415V68.4951Z" fill="#252525"/>
<path d="M120.365 68.4951H116.375V72.4851H120.365V68.4951Z" fill="#252525"/>
<path d="M12.635 72.4851H8.64502V76.4751H12.635V72.4851Z" fill="#252525"/>
<path d="M20.615 72.4851H16.625V76.4751H20.615V72.4851Z" fill="#252525"/>
<path d="M24.605 72.4851H20.615V76.4751H24.605V72.4851Z" fill="#252525"/>
<path d="M28.595 72.4851H24.605V76.4751H28.595V72.4851Z" fill="#252525"/>
<path d="M32.585 72.4851H28.595V76.4751H32.585V72.4851Z" fill="#252525"/>
<path d="M36.575 72.4851H32.585V76.4751H36.575V72.4851Z" fill="#252525"/>
<path d="M40.565 72.4851H36.575V76.4751H40.565V72.4851Z" fill="#252525"/>
<path d="M44.555 72.4851H40.565V76.4751H44.555V72.4851Z" fill="#252525"/>
<path d="M48.545 72.4851H44.555V76.4751H48.545V72.4851Z" fill="#252525"/>
<path d="M60.515 72.4851H56.525V76.4751H60.515V72.4851Z" fill="#252525"/>
<path d="M68.495 72.4851H64.505V76.4751H68.495V72.4851Z" fill="#252525"/>
<path d="M72.485 72.4851H68.495V76.4751H72.485V72.4851Z" fill="#252525"/>
<path d="M76.475 72.4851H72.485V76.4751H76.475V72.4851Z" fill="#252525"/>
<path d="M80.465 72.4851H76.475V76.4751H80.465V72.4851Z" fill="#252525"/>
<path d="M88.445 72.4851H84.455V76.4751H88.445V72.4851Z" fill="#252525"/>
<path d="M104.405 72.4851H100.415V76.4751H104.405V72.4851Z" fill="#252525"/>
<path d="M112.385 72.4851H108.395V76.4751H112.385V72.4851Z" fill="#252525"/>
<path d="M116.375 72.4851H112.385V76.4751H116.375V72.4851Z" fill="#252525"/>
<path d="M12.635 76.4751H8.64502V80.4651H12.635V76.4751Z" fill="#252525"/>
<path d="M24.605 76.4751H20.615V80.4651H24.605V76.4751Z" fill="#252525"/>
<path d="M28.595 76.4751H24.605V80.4651H28.595V76.4751Z" fill="#252525"/>
<path d="M40.565 76.4751H36.575V80.4651H40.565V76.4751Z" fill="#252525"/>
<path d="M44.555 76.4751H40.565V80.4651H44.555V76.4751Z" fill="#252525"/>
<path d="M48.545 76.4751H44.555V80.4651H48.545V76.4751Z" fill="#252525"/>
<path d="M52.535 76.4751H48.545V80.4651H52.535V76.4751Z" fill="#252525"/>
<path d="M76.475 76.4751H72.485V80.4651H76.475V76.4751Z" fill="#252525"/>
<path d="M80.465 76.4751H76.475V80.4651H80.465V76.4751Z" fill="#252525"/>
<path d="M84.455 76.4751H80.465V80.4651H84.455V76.4751Z" fill="#252525"/>
<path d="M88.445 76.4751H84.455V80.4651H88.445V76.4751Z" fill="#252525"/>
<path d="M96.425 76.4751H92.435V80.4651H96.425V76.4751Z" fill="#252525"/>
<path d="M100.415 76.4751H96.425V80.4651H100.415V76.4751Z" fill="#252525"/>
<path d="M104.405 76.4751H100.415V80.4651H104.405V76.4751Z" fill="#252525"/>
<path d="M108.395 76.4751H104.405V80.4651H108.395V76.4751Z" fill="#252525"/>
<path d="M116.375 76.4751H112.385V80.4651H116.375V76.4751Z" fill="#252525"/>
<path d="M124.355 76.4751H120.365V80.4651H124.355V76.4751Z" fill="#252525"/>
<path d="M12.635 80.4651H8.64502V84.4551H12.635V80.4651Z" fill="#252525"/>
<path d="M20.615 80.4651H16.625V84.4551H20.615V80.4651Z" fill="#252525"/>
<path d="M28.595 80.4651H24.605V84.4551H28.595V80.4651Z" fill="#252525"/>
<path d="M32.585 80.4651H28.595V84.4551H32.585V80.4651Z" fill="#252525"/>
<path d="M36.575 80.4651H32.585V84.4551H36.575V80.4651Z" fill="#252525"/>
<path d="M44.555 80.4651H40.565V84.4551H44.555V80.4651Z" fill="#252525"/>
<path d="M56.525 80.4651H52.535V84.4551H56.525V80.4651Z" fill="#252525"/>
<path d="M60.515 80.4651H56.525V84.4551H60.515V80.4651Z" fill="#252525"/>
<path d="M72.485 80.4651H68.495V84.4551H72.485V80.4651Z" fill="#252525"/>
<path d="M84.455 80.4651H80.465V84.4551H84.455V80.4651Z" fill="#252525"/>
<path d="M92.435 80.4651H88.445V84.4551H92.435V80.4651Z" fill="#252525"/>
<path d="M96.425 80.4651H92.435V84.4551H96.425V80.4651Z" fill="#252525"/>
<path d="M108.395 80.4651H104.405V84.4551H108.395V80.4651Z" fill="#252525"/>
<path d="M116.375 80.4651H112.385V84.4551H116.375V80.4651Z" fill="#252525"/>
<path d="M12.635 84.4551H8.64502V88.4451H12.635V84.4551Z" fill="#252525"/>
<path d="M20.615 84.4551H16.625V88.4451H20.615V84.4551Z" fill="#252525"/>
<path d="M28.595 84.4551H24.605V88.4451H28.595V84.4551Z" fill="#252525"/>
<path d="M40.565 84.4551H36.575V88.4451H40.565V84.4551Z" fill="#252525"/>
<path d="M52.535 84.4551H48.545V88.4451H52.535V84.4551Z" fill="#252525"/>
<path d="M56.525 84.4551H52.535V88.4451H56.525V84.4551Z" fill="#252525"/>
<path d="M68.495 84.4551H64.505V88.4451H68.495V84.4551Z" fill="#252525"/>
<path d="M88.445 84.4551H84.455V88.4451H88.445V84.4551Z" fill="#252525"/>
<path d="M100.415 84.4551H96.425V88.4451H100.415V84.4551Z" fill="#252525"/>
<path d="M104.405 84.4551H100.415V88.4451H104.405V84.4551Z" fill="#252525"/>
<path d="M108.395 84.4551H104.405V88.4451H108.395V84.4551Z" fill="#252525"/>
<path d="M120.365 84.4551H116.375V88.4451H120.365V84.4551Z" fill="#252525"/>
<path d="M12.635 88.4451H8.64502V92.4351H12.635V88.4451Z" fill="#252525"/>
<path d="M20.615 88.4451H16.625V92.4351H20.615V88.4451Z" fill="#252525"/>
<path d="M28.595 88.4451H24.605V92.4351H28.595V88.4451Z" fill="#252525"/>
<path d="M36.575 88.4451H32.585V92.4351H36.575V88.4451Z" fill="#252525"/>
<path d="M44.555 88.4451H40.565V92.4351H44.555V88.4451Z" fill="#252525"/>
<path d="M56.525 88.4451H52.535V92.4351H56.525V88.4451Z" fill="#252525"/>
<path d="M72.485 88.4451H68.495V92.4351H72.485V88.4451Z" fill="#252525"/>
<path d="M76.475 88.4451H72.485V92.4351H76.475V88.4451Z" fill="#252525"/>
<path d="M80.465 88.4451H76.475V92.4351H80.465V88.4451Z" fill="#252525"/>
<path d="M88.445 88.4451H84.455V92.4351H88.445V88.4451Z" fill="#252525"/>
<path d="M92.435 88.4451H88.445V92.4351H92.435V88.4451Z" fill="#252525"/>
<path d="M96.425 88.4451H92.435V92.4351H96.425V88.4451Z" fill="#252525"/>
<path d="M100.415 88.4451H96.425V92.4351H100.415V88.4451Z" fill="#252525"/>
<path d="M104.405 88.4451H100.415V92.4351H104.405V88.4451Z" fill="#252525"/>
<path d="M108.395 88.4451H104.405V92.4351H108.395V88.4451Z" fill="#252525"/>
<path d="M116.375 88.4451H112.385V92.4351H116.375V88.4451Z" fill="#252525"/>
<path d="M120.365 88.4451H116.375V92.4351H120.365V88.4451Z" fill="#252525"/>
<path d="M124.355 88.4451H120.365V92.4351H124.355V88.4451Z" fill="#252525"/>
<path d="M44.555 92.4351H40.565V96.4251H44.555V92.4351Z" fill="#252525"/>
<path d="M60.515 92.4351H56.525V96.4251H60.515V92.4351Z" fill="#252525"/>
<path d="M64.505 92.4351H60.515V96.4251H64.505V92.4351Z" fill="#252525"/>
<path d="M68.495 92.4351H64.505V96.4251H68.495V92.4351Z" fill="#252525"/>
<path d="M76.475 92.4351H72.485V96.4251H76.475V92.4351Z" fill="#252525"/>
<path d="M80.465 92.4351H76.475V96.4251H80.465V92.4351Z" fill="#252525"/>
<path d="M84.455 92.4351H80.465V96.4251H84.455V92.4351Z" fill="#252525"/>
<path d="M92.435 92.4351H88.445V96.4251H92.435V92.4351Z" fill="#252525"/>
<path d="M108.395 92.4351H104.405V96.4251H108.395V92.4351Z" fill="#252525"/>
<path d="M112.385 92.4351H108.395V96.4251H112.385V92.4351Z" fill="#252525"/>
<path d="M116.375 92.4351H112.385V96.4251H116.375V92.4351Z" fill="#252525"/>
<path d="M120.365 92.4351H116.375V96.4251H120.365V92.4351Z" fill="#252525"/>
<path d="M124.355 92.4351H120.365V96.4251H124.355V92.4351Z" fill="#252525"/>
<path d="M12.635 96.425H8.64502V100.415H12.635V96.425Z" fill="#252525"/>
<path d="M16.625 96.425H12.635V100.415H16.625V96.425Z" fill="#252525"/>
<path d="M20.615 96.425H16.625V100.415H20.615V96.425Z" fill="#252525"/>
<path d="M24.605 96.425H20.615V100.415H24.605V96.425Z" fill="#252525"/>
<path d="M28.595 96.425H24.605V100.415H28.595V96.425Z" fill="#252525"/>
<path d="M32.585 96.425H28.595V100.415H32.585V96.425Z" fill="#252525"/>
<path d="M36.575 96.425H32.585V100.415H36.575V96.425Z" fill="#252525"/>
<path d="M44.555 96.425H40.565V100.415H44.555V96.425Z" fill="#252525"/>
<path d="M48.545 96.425H44.555V100.415H48.545V96.425Z" fill="#252525"/>
<path d="M52.535 96.425H48.545V100.415H52.535V96.425Z" fill="#252525"/>
<path d="M64.505 96.425H60.515V100.415H64.505V96.425Z" fill="#252525"/>
<path d="M68.495 96.425H64.505V100.415H68.495V96.425Z" fill="#252525"/>
<path d="M72.485 96.425H68.495V100.415H72.485V96.425Z" fill="#252525"/>
<path d="M76.475 96.425H72.485V100.415H76.475V96.425Z" fill="#252525"/>
<path d="M80.465 96.425H76.475V100.415H80.465V96.425Z" fill="#252525"/>
<path d="M88.445 96.425H84.455V100.415H88.445V96.425Z" fill="#252525"/>
<path d="M92.435 96.425H88.445V100.415H92.435V96.425Z" fill="#252525"/>
<path d="M100.415 96.425H96.425V100.415H100.415V96.425Z" fill="#252525"/>
<path d="M108.395 96.425H104.405V100.415H108.395V96.425Z" fill="#252525"/>
<path d="M112.385 96.425H108.395V100.415H112.385V96.425Z" fill="#252525"/>
<path d="M116.375 96.425H112.385V100.415H116.375V96.425Z" fill="#252525"/>
<path d="M12.635 100.415H8.64502V104.405H12.635V100.415Z" fill="#252525"/>
<path d="M36.575 100.415H32.585V104.405H36.575V100.415Z" fill="#252525"/>
<path d="M60.515 100.415H56.525V104.405H60.515V100.415Z" fill="#252525"/>
<path d="M64.505 100.415H60.515V104.405H64.505V100.415Z" fill="#252525"/>
<path d="M76.475 100.415H72.485V104.405H76.475V100.415Z" fill="#252525"/>
<path d="M88.445 100.415H84.455V104.405H88.445V100.415Z" fill="#252525"/>
<path d="M92.435 100.415H88.445V104.405H92.435V100.415Z" fill="#252525"/>
<path d="M108.395 100.415H104.405V104.405H108.395V100.415Z" fill="#252525"/>
<path d="M124.355 100.415H120.365V104.405H124.355V100.415Z" fill="#252525"/>
<path d="M12.635 104.405H8.64502V108.395H12.635V104.405Z" fill="#252525"/>
<path d="M20.615 104.405H16.625V108.395H20.615V104.405Z" fill="#252525"/>
<path d="M24.605 104.405H20.615V108.395H24.605V104.405Z" fill="#252525"/>
<path d="M28.595 104.405H24.605V108.395H28.595V104.405Z" fill="#252525"/>
<path d="M36.575 104.405H32.585V108.395H36.575V104.405Z" fill="#252525"/>
<path d="M44.555 104.405H40.565V108.395H44.555V104.405Z" fill="#252525"/>
<path d="M48.545 104.405H44.555V108.395H48.545V104.405Z" fill="#252525"/>
<path d="M52.535 104.405H48.545V108.395H52.535V104.405Z" fill="#252525"/>
<path d="M60.515 104.405H56.525V108.395H60.515V104.405Z" fill="#252525"/>
<path d="M68.495 104.405H64.505V108.395H68.495V104.405Z" fill="#252525"/>
<path d="M80.465 104.405H76.475V108.395H80.465V104.405Z" fill="#252525"/>
<path d="M84.455 104.405H80.465V108.395H84.455V104.405Z" fill="#252525"/>
<path d="M92.435 104.405H88.445V108.395H92.435V104.405Z" fill="#252525"/>
<path d="M96.425 104.405H92.435V108.395H96.425V104.405Z" fill="#252525"/>
<path d="M100.415 104.405H96.425V108.395H100.415V104.405Z" fill="#252525"/>
<path d="M104.405 104.405H100.415V108.395H104.405V104.405Z" fill="#252525"/>
<path d="M108.395 104.405H104.405V108.395H108.395V104.405Z" fill="#252525"/>
<path d="M116.375 104.405H112.385V108.395H116.375V104.405Z" fill="#252525"/>
<path d="M12.635 108.395H8.64502V112.385H12.635V108.395Z" fill="#252525"/>
<path d="M20.615 108.395H16.625V112.385H20.615V108.395Z" fill="#252525"/>
<path d="M24.605 108.395H20.615V112.385H24.605V108.395Z" fill="#252525"/>
<path d="M28.595 108.395H24.605V112.385H28.595V108.395Z" fill="#252525"/>
<path d="M36.575 108.395H32.585V112.385H36.575V108.395Z" fill="#252525"/>
<path d="M44.555 108.395H40.565V112.385H44.555V108.395Z" fill="#252525"/>
<path d="M76.475 108.395H72.485V112.385H76.475V108.395Z" fill="#252525"/>
<path d="M80.465 108.395H76.475V112.385H80.465V108.395Z" fill="#252525"/>
<path d="M84.455 108.395H80.465V112.385H84.455V108.395Z" fill="#252525"/>
<path d="M88.445 108.395H84.455V112.385H88.445V108.395Z" fill="#252525"/>
<path d="M112.385 108.395H108.395V112.385H112.385V108.395Z" fill="#252525"/>
<path d="M116.375 108.395H112.385V112.385H116.375V108.395Z" fill="#252525"/>
<path d="M120.365 108.395H116.375V112.385H120.365V108.395Z" fill="#252525"/>
<path d="M124.355 108.395H120.365V112.385H124.355V108.395Z" fill="#252525"/>
<path d="M12.635 112.385H8.64502V116.375H12.635V112.385Z" fill="#252525"/>
<path d="M20.615 112.385H16.625V116.375H20.615V112.385Z" fill="#252525"/>
<path d="M24.605 112.385H20.615V116.375H24.605V112.385Z" fill="#252525"/>
<path d="M28.595 112.385H24.605V116.375H28.595V112.385Z" fill="#252525"/>
<path d="M36.575 112.385H32.585V116.375H36.575V112.385Z" fill="#252525"/>
<path d="M44.555 112.385H40.565V116.375H44.555V112.385Z" fill="#252525"/>
<path d="M48.545 112.385H44.555V116.375H48.545V112.385Z" fill="#252525"/>
<path d="M56.525 112.385H52.535V116.375H56.525V112.385Z" fill="#252525"/>
<path d="M60.515 112.385H56.525V116.375H60.515V112.385Z" fill="#252525"/>
<path d="M72.485 112.385H68.495V116.375H72.485V112.385Z" fill="#252525"/>
<path d="M80.465 112.385H76.475V116.375H80.465V112.385Z" fill="#252525"/>
<path d="M92.435 112.385H88.445V116.375H92.435V112.385Z" fill="#252525"/>
<path d="M100.415 112.385H96.425V116.375H100.415V112.385Z" fill="#252525"/>
<path d="M104.405 112.385H100.415V116.375H104.405V112.385Z" fill="#252525"/>
<path d="M108.395 112.385H104.405V116.375H108.395V112.385Z" fill="#252525"/>
<path d="M112.385 112.385H108.395V116.375H112.385V112.385Z" fill="#252525"/>
<path d="M116.375 112.385H112.385V116.375H116.375V112.385Z" fill="#252525"/>
<path d="M120.365 112.385H116.375V116.375H120.365V112.385Z" fill="#252525"/>
<path d="M12.635 116.375H8.64502V120.365H12.635V116.375Z" fill="#252525"/>
<path d="M36.575 116.375H32.585V120.365H36.575V116.375Z" fill="#252525"/>
<path d="M44.555 116.375H40.565V120.365H44.555V116.375Z" fill="#252525"/>
<path d="M48.545 116.375H44.555V120.365H48.545V116.375Z" fill="#252525"/>
<path d="M52.535 116.375H48.545V120.365H52.535V116.375Z" fill="#252525"/>
<path d="M56.525 116.375H52.535V120.365H56.525V116.375Z" fill="#252525"/>
<path d="M68.495 116.375H64.505V120.365H68.495V116.375Z" fill="#252525"/>
<path d="M72.485 116.375H68.495V120.365H72.485V116.375Z" fill="#252525"/>
<path d="M88.445 116.375H84.455V120.365H88.445V116.375Z" fill="#252525"/>
<path d="M92.435 116.375H88.445V120.365H92.435V116.375Z" fill="#252525"/>
<path d="M96.425 116.375H92.435V120.365H96.425V116.375Z" fill="#252525"/>
<path d="M100.415 116.375H96.425V120.365H100.415V116.375Z" fill="#252525"/>
<path d="M104.405 116.375H100.415V120.365H104.405V116.375Z" fill="#252525"/>
<path d="M112.385 116.375H108.395V120.365H112.385V116.375Z" fill="#252525"/>
<path d="M120.365 116.375H116.375V120.365H120.365V116.375Z" fill="#252525"/>
<path d="M12.635 120.365H8.64502V124.355H12.635V120.365Z" fill="#252525"/>
<path d="M16.625 120.365H12.635V124.355H16.625V120.365Z" fill="#252525"/>
<path d="M20.615 120.365H16.625V124.355H20.615V120.365Z" fill="#252525"/>
<path d="M24.605 120.365H20.615V124.355H24.605V120.365Z" fill="#252525"/>
<path d="M28.595 120.365H24.605V124.355H28.595V120.365Z" fill="#252525"/>
<path d="M32.585 120.365H28.595V124.355H32.585V120.365Z" fill="#252525"/>
<path d="M36.575 120.365H32.585V124.355H36.575V120.365Z" fill="#252525"/>
<path d="M44.555 120.365H40.565V124.355H44.555V120.365Z" fill="#252525"/>
<path d="M52.535 120.365H48.545V124.355H52.535V120.365Z" fill="#252525"/>
<path d="M56.525 120.365H52.535V124.355H56.525V120.365Z" fill="#252525"/>
<path d="M72.485 120.365H68.495V124.355H72.485V120.365Z" fill="#252525"/>
<path d="M76.475 120.365H72.485V124.355H76.475V120.365Z" fill="#252525"/>
<path d="M80.465 120.365H76.475V124.355H80.465V120.365Z" fill="#252525"/>
<path d="M88.445 120.365H84.455V124.355H88.445V120.365Z" fill="#252525"/>
<path d="M96.425 120.365H92.435V124.355H96.425V120.365Z" fill="#252525"/>
<path d="M100.415 120.365H96.425V124.355H100.415V120.365Z" fill="#252525"/>
<path d="M104.405 120.365H100.415V124.355H104.405V120.365Z" fill="#252525"/>
<path d="M108.395 120.365H104.405V124.355H108.395V120.365Z" fill="#252525"/>
<path d="M112.385 120.365H108.395V124.355H112.385V120.365Z" fill="#252525"/>
<path d="M116.375 120.365H112.385V124.355H116.375V120.365Z" fill="#252525"/>
</svg>
